<svg viewBox="0 0 512 512" fill="none" xmlns="http://www.w3.org/2000/svg">
<g clip-path="url(#clip0_211_9)">
<path d="M512 0H0V512H512V0Z" fill="#FDFDFD"/>
<path d="M90.5387 256C93.44 235.179 94.8907 204.203 94.8907 163.072C94.8907 122.112 93.44 88.064 90.5387 60.928C99.7547 60.416 108.715 59.392 117.419 57.856C126.123 56.32 133.035 54.3574 138.155 51.968C136.619 58.4534 135.339 68.9493 134.315 83.456C133.461 97.9627 132.352 118.443 130.987 144.896C130.816 149.845 130.475 157.611 129.963 168.192H133.291C138.581 152.149 147.285 139.093 159.403 129.024C171.52 118.784 185.429 113.664 201.131 113.664C219.733 113.664 233.216 119.125 241.579 130.048C250.112 140.8 254.379 154.965 254.379 172.544L254.123 201.472C254.123 224.853 255.403 243.029 257.963 256H214.187V195.84C214.187 180.992 211.115 168.96 204.971 159.744C198.997 150.528 189.611 145.92 176.811 145.92C162.987 145.92 152.491 151.125 145.323 161.536C138.325 171.947 134.827 185.003 134.827 200.704V256H90.5387ZM412.966 115.2C410.065 135.851 408.614 157.781 408.614 180.992C408.614 203.861 410.065 228.864 412.966 256H365.606C370.214 237.568 372.774 221.611 373.286 208.128H369.958C365.009 224 356.732 236.459 345.126 245.504C333.521 254.379 319.526 258.816 303.142 258.816C285.222 258.816 272.337 253.44 264.486 242.688C256.806 231.936 252.966 217.685 252.966 199.936V174.848C252.966 151.296 251.772 133.376 249.382 121.088C264.23 121.429 278.14 119.467 291.11 115.2V180.736C291.11 195.072 293.926 206.251 299.558 214.272C305.19 222.293 313.809 226.304 325.414 226.304C340.433 226.304 351.356 221.781 358.182 212.736C365.009 203.691 368.422 191.403 368.422 175.872V121.088C384.636 121.429 399.484 119.467 412.966 115.2Z" fill="#181818"/>
<path d="M255.403 368.384C254.208 374.016 253.611 379.904 253.611 386.048C253.611 392.021 254.208 397.824 255.403 403.456C244.821 408.747 232.704 412.757 219.051 415.488C205.568 418.219 191.829 419.584 177.835 419.584C147.115 419.584 123.733 413.184 107.691 400.384C91.648 387.584 83.6267 369.664 83.6267 346.624C83.6267 331.435 87.04 318.379 93.8667 307.456C100.864 296.363 110.677 287.915 123.307 282.112C136.107 276.309 151.125 273.408 168.363 273.408C184.747 273.408 199.424 276.139 212.395 281.6C225.536 286.891 235.861 294.827 243.371 305.408C251.051 315.819 254.891 328.448 254.891 343.296C254.891 345.173 254.72 348.16 254.379 352.256C223.147 351.744 196.267 351.488 173.739 351.488C158.379 351.488 142.507 351.659 126.123 352C129.877 377.771 148.053 390.656 180.651 390.656C193.621 390.656 207.275 388.608 221.611 384.512C235.947 380.416 247.211 375.04 255.403 368.384ZM168.363 300.8C155.392 300.8 145.152 304.128 137.643 310.784C130.304 317.44 126.293 326.997 125.611 339.456C134.656 339.797 150.016 339.968 171.691 339.968C189.952 339.968 203.605 339.883 212.651 339.712C211.115 327.253 206.421 317.696 198.571 311.04C190.891 304.213 180.821 300.8 168.363 300.8ZM328.851 419.584C313.662 419.584 298.814 418.219 284.307 415.488C269.971 412.757 257.598 408.747 247.187 403.456C248.894 398.848 249.747 392.96 249.747 385.792C249.747 378.624 248.894 373.248 247.187 369.664C255.379 376.149 267.07 381.44 282.259 385.536C297.449 389.461 312.553 391.424 327.571 391.424C339.859 391.424 349.075 389.973 355.219 387.072C361.534 384 364.691 379.648 364.691 374.016C364.691 369.408 362.643 365.995 358.547 363.776C354.622 361.387 349.502 359.851 343.187 359.168C337.043 358.485 328.595 357.888 317.843 357.376C302.313 356.693 289.598 355.584 279.699 354.048C269.971 352.341 261.609 348.672 254.611 343.04C247.614 337.408 244.115 329.045 244.115 317.952C244.115 300.032 252.137 288.256 268.179 282.624C284.222 276.821 302.995 273.92 324.499 273.92C337.811 273.92 349.758 274.859 360.339 276.736C371.091 278.443 383.55 281.259 397.715 285.184C396.179 289.451 395.411 294.059 395.411 299.008C395.411 304.469 396.435 311.211 398.483 319.232C373.566 306.773 348.137 300.544 322.195 300.544C309.225 300.544 299.667 301.909 293.523 304.64C287.379 307.371 284.307 311.808 284.307 317.952C284.307 323.072 286.355 326.827 290.451 329.216C294.718 331.605 299.838 333.141 305.811 333.824C311.955 334.507 320.83 335.104 332.435 335.616C347.966 336.128 360.595 337.152 370.323 338.688C380.051 340.224 388.329 343.808 395.155 349.44C402.153 354.901 405.651 363.264 405.651 374.528C405.651 404.565 380.051 419.584 328.851 419.584Z" fill="#181818"/>
</g>
<defs>
<clipPath id="clip0_211_9">
<rect width="512" height="512" fill="white"/>
</clipPath>
</defs>
</svg>
